<?xml version="1.0" standalone="no"?>
<!DOCTYPE svg PUBLIC "-//W3C//DTD SVG 20010904//EN"
 "http://www.w3.org/TR/2001/REC-SVG-20010904/DTD/svg10.dtd">
<svg version="1.0" xmlns="http://www.w3.org/2000/svg"
 width="369.000000pt" height="406.000000pt" viewBox="0 0 369.000000 406.000000"
 preserveAspectRatio="xMidYMid meet">

<g transform="translate(0.000000,406.000000) scale(0.100000,-0.100000)"
fill="#000000" stroke="none">
<path d="M1760 3920 c-348 -49 -626 -186 -871 -430 -118 -118 -209 -240 -274
-370 -75 -149 -133 -364 -155 -570 -10 -102 -11 -449 -1 -568 l6 -74 83 91
c99 108 242 229 372 316 109 73 325 180 454 225 104 36 147 65 210 142 53 66
121 118 202 155 52 24 72 27 164 27 98 1 109 -1 173 -31 129 -61 226 -190 250
-330 31 -181 -82 -392 -253 -472 -44 -20 -74 -26 -155 -29 -123 -5 -186 15
-278 89 -124 99 -161 105 -307 47 -428 -168 -760 -549 -880 -1009 -98 -380
-49 -661 150 -857 63 -62 165 -114 260 -134 47 -9 169 -13 450 -13 l385 0 3
394 c1 239 6 399 12 406 6 7 61 14 146 18 394 19 662 107 934 305 101 73 251
228 328 337 307 434 354 1013 121 1500 -199 416 -586 720 -1037 815 -111 24
-386 35 -492 20z"/>
</g>
</svg>
